<mxfile host="app.diagrams.net" modified="2023-09-15T10:15:06.924Z" agent="Mozilla/5.0 (Windows NT 10.0; Win64; x64) AppleWebKit/537.36 (KHTML, like Gecko) Chrome/116.0.0.0 Safari/537.36" etag="z2NjNELir9USQo289GoR" version="21.7.5" type="google">
  <diagram name="Page-1" id="dhglGnthyNHDI1gSBQLR">
    <mxGraphModel grid="0" page="0" gridSize="10" guides="1" tooltips="1" connect="1" arrows="1" fold="1" pageScale="1" pageWidth="850" pageHeight="1100" background="none" math="0" shadow="0">
      <root>
        <mxCell id="0" />
        <mxCell id="1" parent="0" />
        <mxCell id="J6VBoNpEUEcnZSIU-9Hv-1" value="" style="ellipse;whiteSpace=wrap;html=1;aspect=fixed;fillColor=#0F0F0F;" vertex="1" parent="1">
          <mxGeometry x="-987" y="88" width="40" height="40" as="geometry" />
        </mxCell>
        <mxCell id="J6VBoNpEUEcnZSIU-9Hv-3" value="Fill Login deatails" style="rounded=1;whiteSpace=wrap;html=1;fontSize=20;" vertex="1" parent="1">
          <mxGeometry x="-1427" y="193" width="200" height="70" as="geometry" />
        </mxCell>
        <mxCell id="J6VBoNpEUEcnZSIU-9Hv-4" value="Valid?" style="rhombus;whiteSpace=wrap;html=1;fontSize=20;" vertex="1" parent="1">
          <mxGeometry x="-1367" y="558" width="80" height="80" as="geometry" />
        </mxCell>
        <mxCell id="J6VBoNpEUEcnZSIU-9Hv-15" value="Email" style="rounded=1;whiteSpace=wrap;html=1;fontSize=20;" vertex="1" parent="1">
          <mxGeometry x="-1507" y="348" width="120" height="60" as="geometry" />
        </mxCell>
        <mxCell id="J6VBoNpEUEcnZSIU-9Hv-16" value="Passsword" style="rounded=1;whiteSpace=wrap;html=1;fontSize=20;" vertex="1" parent="1">
          <mxGeometry x="-1267" y="348" width="120" height="60" as="geometry" />
        </mxCell>
        <mxCell id="J6VBoNpEUEcnZSIU-9Hv-17" value="" style="line;strokeWidth=2;html=1;" vertex="1" parent="1">
          <mxGeometry x="-1507" y="298" width="360" height="10" as="geometry" />
        </mxCell>
        <mxCell id="J6VBoNpEUEcnZSIU-9Hv-2" value="Login&amp;nbsp;" style="rounded=1;whiteSpace=wrap;html=1;fontSize=20;" vertex="1" parent="1">
          <mxGeometry x="-1032" y="198" width="130" height="60" as="geometry" />
        </mxCell>
        <mxCell id="J6VBoNpEUEcnZSIU-9Hv-20" value="" style="line;strokeWidth=2;html=1;" vertex="1" parent="1">
          <mxGeometry x="-1507" y="448" width="360" height="10" as="geometry" />
        </mxCell>
        <mxCell id="J6VBoNpEUEcnZSIU-9Hv-23" value="" style="endArrow=classic;html=1;rounded=0;exitX=0.5;exitY=1;exitDx=0;exitDy=0;entryX=0.5;entryY=0;entryDx=0;entryDy=0;endSize=12;" edge="1" parent="1" source="J6VBoNpEUEcnZSIU-9Hv-1" target="J6VBoNpEUEcnZSIU-9Hv-2">
          <mxGeometry width="50" height="50" relative="1" as="geometry">
            <mxPoint x="-977" y="148" as="sourcePoint" />
            <mxPoint x="-967" y="188" as="targetPoint" />
          </mxGeometry>
        </mxCell>
        <mxCell id="J6VBoNpEUEcnZSIU-9Hv-24" value="" style="endArrow=classic;html=1;rounded=0;entryX=1;entryY=0.5;entryDx=0;entryDy=0;exitX=0;exitY=0.5;exitDx=0;exitDy=0;endSize=12;" edge="1" parent="1" source="J6VBoNpEUEcnZSIU-9Hv-2" target="J6VBoNpEUEcnZSIU-9Hv-3">
          <mxGeometry width="50" height="50" relative="1" as="geometry">
            <mxPoint x="-1277" y="278" as="sourcePoint" />
            <mxPoint x="-1227" y="228" as="targetPoint" />
          </mxGeometry>
        </mxCell>
        <mxCell id="J6VBoNpEUEcnZSIU-9Hv-25" value="" style="endArrow=classic;html=1;rounded=0;exitX=0.5;exitY=1;exitDx=0;exitDy=0;endSize=12;entryX=0.5;entryY=0.433;entryDx=0;entryDy=0;entryPerimeter=0;" edge="1" parent="1" source="J6VBoNpEUEcnZSIU-9Hv-3" target="J6VBoNpEUEcnZSIU-9Hv-17">
          <mxGeometry width="50" height="50" relative="1" as="geometry">
            <mxPoint x="-1022" y="238" as="sourcePoint" />
            <mxPoint x="-1327" y="298" as="targetPoint" />
          </mxGeometry>
        </mxCell>
        <mxCell id="J6VBoNpEUEcnZSIU-9Hv-26" value="" style="endArrow=classic;html=1;rounded=0;entryX=0.5;entryY=0;entryDx=0;entryDy=0;endSize=12;exitX=0.165;exitY=0.4;exitDx=0;exitDy=0;exitPerimeter=0;" edge="1" parent="1" source="J6VBoNpEUEcnZSIU-9Hv-17" target="J6VBoNpEUEcnZSIU-9Hv-15">
          <mxGeometry width="50" height="50" relative="1" as="geometry">
            <mxPoint x="-1447" y="303" as="sourcePoint" />
            <mxPoint x="-1207" y="248" as="targetPoint" />
          </mxGeometry>
        </mxCell>
        <mxCell id="J6VBoNpEUEcnZSIU-9Hv-28" value="" style="endArrow=classic;html=1;rounded=0;endSize=12;exitX=0.832;exitY=0.514;exitDx=0;exitDy=0;exitPerimeter=0;entryX=0.5;entryY=0;entryDx=0;entryDy=0;" edge="1" parent="1" source="J6VBoNpEUEcnZSIU-9Hv-17" target="J6VBoNpEUEcnZSIU-9Hv-16">
          <mxGeometry width="50" height="50" relative="1" as="geometry">
            <mxPoint x="-1207.29" y="303" as="sourcePoint" />
            <mxPoint x="-1207" y="348" as="targetPoint" />
          </mxGeometry>
        </mxCell>
        <mxCell id="J6VBoNpEUEcnZSIU-9Hv-29" value="" style="endArrow=classic;html=1;rounded=0;entryX=0.165;entryY=0.371;entryDx=0;entryDy=0;endSize=12;exitX=0.5;exitY=1;exitDx=0;exitDy=0;entryPerimeter=0;" edge="1" parent="1" source="J6VBoNpEUEcnZSIU-9Hv-15" target="J6VBoNpEUEcnZSIU-9Hv-20">
          <mxGeometry width="50" height="50" relative="1" as="geometry">
            <mxPoint x="-1447.29" y="408" as="sourcePoint" />
            <mxPoint x="-1447.29" y="453" as="targetPoint" />
          </mxGeometry>
        </mxCell>
        <mxCell id="J6VBoNpEUEcnZSIU-9Hv-30" value="" style="endArrow=classic;html=1;rounded=0;entryX=0.833;entryY=0.461;entryDx=0;entryDy=0;endSize=12;entryPerimeter=0;exitX=0.497;exitY=0.983;exitDx=0;exitDy=0;exitPerimeter=0;" edge="1" parent="1" source="J6VBoNpEUEcnZSIU-9Hv-16" target="J6VBoNpEUEcnZSIU-9Hv-20">
          <mxGeometry width="50" height="50" relative="1" as="geometry">
            <mxPoint x="-1207.29" y="408" as="sourcePoint" />
            <mxPoint x="-1207.29" y="453" as="targetPoint" />
          </mxGeometry>
        </mxCell>
        <mxCell id="J6VBoNpEUEcnZSIU-9Hv-31" value="Save Credentials" style="rounded=1;whiteSpace=wrap;html=1;fontSize=20;" vertex="1" parent="1">
          <mxGeometry x="-1387" y="708" width="120" height="60" as="geometry" />
        </mxCell>
        <mxCell id="J6VBoNpEUEcnZSIU-9Hv-32" value="" style="endArrow=classic;html=1;rounded=0;entryX=0.5;entryY=0;entryDx=0;entryDy=0;exitX=0.5;exitY=1;exitDx=0;exitDy=0;fontSize=18;endSize=12;" edge="1" parent="1" source="J6VBoNpEUEcnZSIU-9Hv-4" target="J6VBoNpEUEcnZSIU-9Hv-31">
          <mxGeometry width="50" height="50" relative="1" as="geometry">
            <mxPoint x="-1457" y="658" as="sourcePoint" />
            <mxPoint x="-1407" y="608" as="targetPoint" />
          </mxGeometry>
        </mxCell>
        <mxCell id="J6VBoNpEUEcnZSIU-9Hv-33" value="" style="endArrow=classic;html=1;rounded=0;entryX=0;entryY=0.5;entryDx=0;entryDy=0;exitX=1;exitY=0.5;exitDx=0;exitDy=0;fontSize=18;endSize=12;" edge="1" parent="1" source="J6VBoNpEUEcnZSIU-9Hv-31">
          <mxGeometry width="50" height="50" relative="1" as="geometry">
            <mxPoint x="-1147" y="718" as="sourcePoint" />
            <mxPoint x="-987" y="738" as="targetPoint" />
          </mxGeometry>
        </mxCell>
        <mxCell id="J6VBoNpEUEcnZSIU-9Hv-35" value="" style="endArrow=classic;html=1;rounded=0;entryX=0.5;entryY=0;entryDx=0;entryDy=0;exitX=0.499;exitY=0.324;exitDx=0;exitDy=0;exitPerimeter=0;endSize=12;" edge="1" parent="1" source="J6VBoNpEUEcnZSIU-9Hv-20" target="J6VBoNpEUEcnZSIU-9Hv-4">
          <mxGeometry width="50" height="50" relative="1" as="geometry">
            <mxPoint x="-1427" y="538" as="sourcePoint" />
            <mxPoint x="-1377" y="488" as="targetPoint" />
          </mxGeometry>
        </mxCell>
        <mxCell id="J6VBoNpEUEcnZSIU-9Hv-36" value="Yes" style="text;strokeColor=none;fillColor=none;html=1;fontSize=20;fontStyle=1;verticalAlign=middle;align=center;" vertex="1" parent="1">
          <mxGeometry x="-1317" y="658" width="40" height="20" as="geometry" />
        </mxCell>
        <mxCell id="J6VBoNpEUEcnZSIU-9Hv-43" value="Counter" style="rounded=0;whiteSpace=wrap;html=1;fontSize=20;" vertex="1" parent="1">
          <mxGeometry x="-1727" y="568" width="120" height="60" as="geometry" />
        </mxCell>
        <mxCell id="J6VBoNpEUEcnZSIU-9Hv-44" value="" style="endArrow=classic;html=1;rounded=0;fontSize=18;endSize=12;entryX=0;entryY=0.5;entryDx=0;entryDy=0;exitX=0.5;exitY=0;exitDx=0;exitDy=0;" edge="1" parent="1" source="J6VBoNpEUEcnZSIU-9Hv-46" target="J6VBoNpEUEcnZSIU-9Hv-3">
          <mxGeometry width="50" height="50" relative="1" as="geometry">
            <mxPoint x="-1667" y="368" as="sourcePoint" />
            <mxPoint x="-1817" y="278" as="targetPoint" />
            <Array as="points">
              <mxPoint x="-1667" y="228" />
            </Array>
          </mxGeometry>
        </mxCell>
        <mxCell id="J6VBoNpEUEcnZSIU-9Hv-45" value="No" style="text;strokeColor=none;fillColor=none;html=1;fontSize=20;fontStyle=1;verticalAlign=middle;align=center;" vertex="1" parent="1">
          <mxGeometry x="-1397" y="578" width="40" height="20" as="geometry" />
        </mxCell>
        <mxCell id="J6VBoNpEUEcnZSIU-9Hv-46" value="Invalid&amp;gt;3?" style="rhombus;whiteSpace=wrap;html=1;fontSize=20;" vertex="1" parent="1">
          <mxGeometry x="-1752" y="448" width="170" height="80" as="geometry" />
        </mxCell>
        <mxCell id="J6VBoNpEUEcnZSIU-9Hv-47" value="" style="endArrow=classic;html=1;rounded=0;fontSize=18;endSize=12;exitX=0.5;exitY=0;exitDx=0;exitDy=0;entryX=0.5;entryY=1;entryDx=0;entryDy=0;" edge="1" parent="1" source="J6VBoNpEUEcnZSIU-9Hv-43" target="J6VBoNpEUEcnZSIU-9Hv-46">
          <mxGeometry width="50" height="50" relative="1" as="geometry">
            <mxPoint x="-1837" y="558" as="sourcePoint" />
            <mxPoint x="-1597" y="558" as="targetPoint" />
            <Array as="points" />
          </mxGeometry>
        </mxCell>
        <mxCell id="J6VBoNpEUEcnZSIU-9Hv-48" value="" style="group" connectable="0" vertex="1" parent="1">
          <mxGeometry x="-987" y="718" width="40" height="40" as="geometry" />
        </mxCell>
        <mxCell id="J6VBoNpEUEcnZSIU-9Hv-39" value="" style="ellipse;whiteSpace=wrap;html=1;aspect=fixed;fillColor=#FFFFFF;" vertex="1" parent="J6VBoNpEUEcnZSIU-9Hv-48">
          <mxGeometry width="40" height="40" as="geometry" />
        </mxCell>
        <mxCell id="J6VBoNpEUEcnZSIU-9Hv-38" value="" style="ellipse;whiteSpace=wrap;html=1;aspect=fixed;fillColor=#0F0F0F;" vertex="1" parent="J6VBoNpEUEcnZSIU-9Hv-48">
          <mxGeometry x="5" y="5" width="30" height="30" as="geometry" />
        </mxCell>
        <mxCell id="J6VBoNpEUEcnZSIU-9Hv-55" value="" style="endArrow=classic;html=1;rounded=0;fontSize=18;endSize=12;exitX=0;exitY=0.5;exitDx=0;exitDy=0;entryX=1;entryY=0.5;entryDx=0;entryDy=0;" edge="1" parent="1" source="J6VBoNpEUEcnZSIU-9Hv-58">
          <mxGeometry width="50" height="50" relative="1" as="geometry">
            <mxPoint x="-1657" y="588" as="sourcePoint" />
            <mxPoint x="-1842" y="488" as="targetPoint" />
            <Array as="points" />
          </mxGeometry>
        </mxCell>
        <mxCell id="J6VBoNpEUEcnZSIU-9Hv-56" value="No" style="text;strokeColor=none;fillColor=none;html=1;fontSize=20;fontStyle=1;verticalAlign=middle;align=center;" vertex="1" parent="1">
          <mxGeometry x="-1717" y="428" width="40" height="20" as="geometry" />
        </mxCell>
        <mxCell id="J6VBoNpEUEcnZSIU-9Hv-57" value="Yes" style="text;strokeColor=none;fillColor=none;html=1;fontSize=20;fontStyle=1;verticalAlign=middle;align=center;" vertex="1" parent="1">
          <mxGeometry x="-1792" y="468" width="40" height="20" as="geometry" />
        </mxCell>
        <mxCell id="J6VBoNpEUEcnZSIU-9Hv-59" value="" style="endArrow=classic;html=1;rounded=0;fontSize=18;endSize=12;exitX=0;exitY=0.5;exitDx=0;exitDy=0;entryX=1;entryY=0.5;entryDx=0;entryDy=0;" edge="1" parent="1" source="J6VBoNpEUEcnZSIU-9Hv-46" target="J6VBoNpEUEcnZSIU-9Hv-58">
          <mxGeometry width="50" height="50" relative="1" as="geometry">
            <mxPoint x="-1752" y="488" as="sourcePoint" />
            <mxPoint x="-1842" y="488" as="targetPoint" />
            <Array as="points" />
          </mxGeometry>
        </mxCell>
        <mxCell id="J6VBoNpEUEcnZSIU-9Hv-58" value="" style="shape=sumEllipse;perimeter=ellipsePerimeter;whiteSpace=wrap;html=1;backgroundOutline=1;" vertex="1" parent="1">
          <mxGeometry x="-1877" y="468" width="45" height="40" as="geometry" />
        </mxCell>
        <mxCell id="J6VBoNpEUEcnZSIU-9Hv-61" value="" style="endArrow=classic;html=1;rounded=0;fontSize=18;endSize=12;exitX=0;exitY=0.5;exitDx=0;exitDy=0;entryX=1;entryY=0.5;entryDx=0;entryDy=0;" edge="1" parent="1" source="J6VBoNpEUEcnZSIU-9Hv-62" target="J6VBoNpEUEcnZSIU-9Hv-43">
          <mxGeometry width="50" height="50" relative="1" as="geometry">
            <mxPoint x="-1537" y="628" as="sourcePoint" />
            <mxPoint x="-1537" y="588" as="targetPoint" />
            <Array as="points" />
          </mxGeometry>
        </mxCell>
        <mxCell id="J6VBoNpEUEcnZSIU-9Hv-64" value="" style="endArrow=classic;html=1;rounded=0;fontSize=18;endSize=12;exitX=0;exitY=0.5;exitDx=0;exitDy=0;entryX=1;entryY=0.5;entryDx=0;entryDy=0;" edge="1" parent="1" source="J6VBoNpEUEcnZSIU-9Hv-4" target="J6VBoNpEUEcnZSIU-9Hv-62">
          <mxGeometry width="50" height="50" relative="1" as="geometry">
            <mxPoint x="-1367" y="598" as="sourcePoint" />
            <mxPoint x="-1607" y="598" as="targetPoint" />
            <Array as="points" />
          </mxGeometry>
        </mxCell>
        <mxCell id="J6VBoNpEUEcnZSIU-9Hv-62" value="Create New User?" style="rhombus;whiteSpace=wrap;html=1;fontSize=11;" vertex="1" parent="1">
          <mxGeometry x="-1517" y="558" width="80" height="80" as="geometry" />
        </mxCell>
        <mxCell id="J6VBoNpEUEcnZSIU-9Hv-65" value="No" style="text;strokeColor=none;fillColor=none;html=1;fontSize=20;fontStyle=1;verticalAlign=middle;align=center;" vertex="1" parent="1">
          <mxGeometry x="-1572" y="578" width="40" height="20" as="geometry" />
        </mxCell>
        <mxCell id="J6VBoNpEUEcnZSIU-9Hv-66" value="" style="endArrow=classic;html=1;rounded=0;exitX=0.5;exitY=1;exitDx=0;exitDy=0;fontSize=18;endSize=12;entryX=0.469;entryY=-0.006;entryDx=0;entryDy=0;entryPerimeter=0;" edge="1" parent="1" source="J6VBoNpEUEcnZSIU-9Hv-62" target="J6VBoNpEUEcnZSIU-9Hv-69">
          <mxGeometry width="50" height="50" relative="1" as="geometry">
            <mxPoint x="-1477" y="633" as="sourcePoint" />
            <mxPoint x="-1477" y="698" as="targetPoint" />
          </mxGeometry>
        </mxCell>
        <mxCell id="J6VBoNpEUEcnZSIU-9Hv-67" value="Yes" style="text;strokeColor=none;fillColor=none;html=1;fontSize=20;fontStyle=1;verticalAlign=middle;align=center;" vertex="1" parent="1">
          <mxGeometry x="-1467" y="648" width="40" height="20" as="geometry" />
        </mxCell>
        <mxCell id="J6VBoNpEUEcnZSIU-9Hv-69" value="Registration Page" style="rounded=1;whiteSpace=wrap;html=1;fontSize=20;" vertex="1" parent="1">
          <mxGeometry x="-1532" y="698" width="120" height="60" as="geometry" />
        </mxCell>
        <mxCell id="egmLjLRWryXfCN48WH3--1" value="" style="ellipse;whiteSpace=wrap;html=1;aspect=fixed;" vertex="1" parent="1">
          <mxGeometry x="530" y="476" width="4" height="4" as="geometry" />
        </mxCell>
      </root>
    </mxGraphModel>
  </diagram>
</mxfile>
